<svg width="180" height="180" viewBox="0 0 180 180" fill="none" xmlns="http://www.w3.org/2000/svg">
<rect width="180" height="180" fill="#F7F9FB"/>
<path fill-rule="evenodd" clip-rule="evenodd" d="M90 31.5C118.995 31.5 142.5 55.0051 142.5 84C142.5 105 131.1 118.5 124.5 126C117.9 133.5 103.5 147.75 99 151.5C94.5 155.25 92.7 156 90 156C87.3 156 85.5 155.25 81 151.5C76.5 147.75 62.1 133.5 55.5 126C48.9 118.5 37.5 105 37.5 84C37.5 55.0051 61.0051 31.5 90 31.5ZM133.5 81C131.843 81 130.5 82.3434 130.5 84C130.5 98.985 122.361 112.072 110.25 119.08C108.816 119.91 108.326 121.746 109.156 123.18C109.986 124.614 111.822 125.104 113.256 124.274C127.144 116.238 136.5 101.213 136.5 84C136.5 82.3436 135.156 81.0004 133.5 81ZM121.5 81C119.843 81 118.5 82.3434 118.5 84C118.5 94.5438 112.775 103.754 104.25 108.687C102.816 109.517 102.326 111.353 103.156 112.787C103.986 114.221 105.822 114.711 107.256 113.881C117.558 107.92 124.5 96.7718 124.5 84C124.5 82.3436 123.156 81.0004 121.5 81ZM90 61.5C77.5736 61.5 67.5 71.5736 67.5 84C67.5 96.4264 77.5736 106.5 90 106.5C102.426 106.5 112.5 96.4264 112.5 84C112.5 71.5736 102.426 61.5 90 61.5ZM70.8442 44.8198C70.0144 43.3859 68.1782 42.8959 66.7441 43.7256C52.8556 51.7616 43.5002 66.7864 43.5 84C43.5003 85.6566 44.8433 87 46.5 87C48.1567 87 49.4997 85.6566 49.5 84C49.5001 69.0148 57.6386 55.9276 69.75 48.9199C71.1838 48.0902 71.6737 46.2538 70.8442 44.8198ZM76.8442 55.2129C76.0144 53.7789 74.1782 53.2889 72.7441 54.1187C62.4419 60.0798 55.5002 71.228 55.5 84C55.5003 85.6566 56.8433 87 58.5 87C60.1567 87 61.4997 85.6566 61.5 84C61.5001 73.456 67.2252 64.2456 75.75 59.313C77.1839 58.4832 77.6737 56.6469 76.8442 55.2129Z" fill="#081624"/>
</svg>
