<svg width="200" height="60" viewBox="0 0 200 60" fill="none" xmlns="http://www.w3.org/2000/svg">
<g filter="url(#filter0_d_3251_34213)">
<path d="M162.918 21.8335H183.918V27.083H162.923C162.936 31.1398 162.997 33.987 163.293 36.1909C163.634 38.7209 164.183 39.5139 164.627 39.958C165.071 40.4021 165.864 41.5348 168.395 41.875C171.092 42.2377 174.754 42.25 180.418 42.25C182.152 42.25 183.697 42.2469 185.085 42.2349V47.4858C183.65 47.498 182.098 47.5 180.418 47.5C169.419 47.5 163.92 47.4999 160.502 44.083C157.085 40.6659 157.085 35.1659 157.085 24.1665V12.5H162.918V21.8335Z" fill="#F7F9FB"/>
<path d="M180.418 18.3335H176.918V12.5H180.418V18.3335Z" fill="#F7F9FB"/>
<path d="M185.085 18.3335H181.585V12.5H185.085V18.3335Z" fill="#F7F9FB"/>
<path d="M146.917 18.3335C146.917 19.5936 146.916 20.7562 146.912 21.8335H152.75V27.083H146.816C146.69 29.949 146.407 32.0107 145.771 33.8267C143.719 39.6912 139.108 44.3019 133.243 46.354C130.864 47.1866 128.063 47.4129 123.583 47.4751V42.2197C127.862 42.1567 129.783 41.9684 131.317 41.4316C135.506 39.9658 138.799 36.0889 140.265 31.8999C140.661 30.7684 140.866 29.4264 140.973 27.083H123.583V21.8335H141.075C141.081 20.7852 141.083 19.6242 141.083 18.3335V12.5H146.917V18.3335Z" fill="#F7F9FB"/>
<path d="M102 26.8408C102.934 26.7709 103.886 26.7741 104.85 26.8584L119.5 28.1396V33.4121L104.341 32.0864C103.546 32.0169 102.763 32.0386 102 32.1406V47.5H96.1665V12.5H102V26.8408Z" fill="#F7F9FB"/>
<path d="M83.3335 18.3335H89.1665V23.5835H83.3335V47.5H77.5V30.085C73.7044 37.2174 67.5136 42.8808 60 46.002V40.0273C66.4877 36.5412 71.5501 30.6349 74.0449 23.5835H61.1665V18.3335H77.5V12.5H83.3335V18.3335Z" fill="#F7F9FB"/>
<path fill-rule="evenodd" clip-rule="evenodd" d="M30 9.5C39.665 9.5 47.5 17.335 47.5 27C47.5 34 43.7 38.5 41.5 41C39.3 43.5 34.5 48.25 33 49.5C31.5 50.75 30.9 51 30 51C29.1 51 28.5 50.75 27 49.5C25.5 48.25 20.7 43.5 18.5 41C16.3 38.5 12.5 34 12.5 27C12.5 17.335 20.335 9.5 30 9.5ZM44.5 26C43.9478 26 43.5001 26.4478 43.5 27C43.5 31.995 40.787 36.3574 36.75 38.6934C36.272 38.97 36.1087 39.582 36.3853 40.0601C36.6619 40.538 37.2739 40.7014 37.752 40.4248C42.3814 37.7461 45.4999 32.7378 45.5 27C45.4999 26.4479 45.0521 26.0001 44.5 26ZM40.5 26C39.9478 26 39.5001 26.4478 39.5 27C39.5 30.5146 37.5915 33.5848 34.75 35.229C34.272 35.5056 34.1087 36.1177 34.3853 36.5957C34.6619 37.0737 35.2739 37.237 35.752 36.9604C39.186 34.9734 41.4999 31.2573 41.5 27C41.4999 26.4479 41.0521 26.0001 40.5 26ZM30 19.5C25.8579 19.5 22.5 22.8579 22.5 27C22.5 31.1421 25.8579 34.5 30 34.5C34.1421 34.5 37.5 31.1421 37.5 27C37.5 22.8579 34.1421 19.5 30 19.5ZM23.6147 13.9399C23.3381 13.462 22.7261 13.2986 22.248 13.5752C17.6185 16.2539 14.5001 21.2621 14.5 27C14.5001 27.5522 14.9478 28 15.5 28C16.0522 28 16.4999 27.5522 16.5 27C16.5 22.0049 19.2129 17.6425 23.25 15.3066C23.7279 15.0301 23.8912 14.4179 23.6147 13.9399ZM25.6147 17.4043C25.3381 16.9263 24.7261 16.763 24.248 17.0396C20.814 19.0266 18.5001 22.7427 18.5 27C18.5001 27.5522 18.9478 28 19.5 28C20.0522 28 20.4999 27.5522 20.5 27C20.5 23.4853 22.4084 20.4152 25.25 18.771C25.728 18.4944 25.8912 17.8823 25.6147 17.4043Z" fill="#F7F9FB"/>
</g>
<defs>
<filter id="filter0_d_3251_34213" x="-4" y="-2" width="208" height="68" filterUnits="userSpaceOnUse" color-interpolation-filters="sRGB">
<feFlood flood-opacity="0" result="BackgroundImageFix"/>
<feColorMatrix in="SourceAlpha" type="matrix" values="0 0 0 0 0 0 0 0 0 0 0 0 0 0 0 0 0 0 127 0" result="hardAlpha"/>
<feOffset dy="2"/>
<feGaussianBlur stdDeviation="2"/>
<feComposite in2="hardAlpha" operator="out"/>
<feColorMatrix type="matrix" values="0 0 0 0 0 0 0 0 0 0 0 0 0 0 0 0 0 0 0.1 0"/>
<feBlend mode="normal" in2="BackgroundImageFix" result="effect1_dropShadow_3251_34213"/>
<feBlend mode="normal" in="SourceGraphic" in2="effect1_dropShadow_3251_34213" result="shape"/>
</filter>
</defs>
</svg>
