<svg width="238" height="283" viewBox="0 0 238 283" fill="none" xmlns="http://www.w3.org/2000/svg">
<path fill-rule="evenodd" clip-rule="evenodd" d="M119 0C184.722 0 238 53.2781 238 119C238 166.6 212.16 197.2 197.2 214.2C182.24 231.2 149.6 263.5 139.4 272C129.2 280.5 125.12 282.2 119 282.2C112.88 282.2 108.8 280.5 98.6 272C88.4 263.5 55.76 231.2 40.8 214.2C25.84 197.2 0 166.6 0 119C0 53.2781 53.2781 0 119 0ZM217.6 112.2C213.845 112.2 210.801 115.245 210.8 119C210.8 152.966 192.352 182.631 164.9 198.515C161.65 200.396 160.539 204.558 162.42 207.808C164.301 211.059 168.463 212.169 171.713 210.289C203.193 192.074 224.4 158.017 224.4 119C224.399 115.246 221.354 112.201 217.6 112.2ZM190.4 112.2C186.645 112.2 183.601 115.245 183.6 119C183.6 142.899 170.622 163.776 151.3 174.957C148.05 176.838 146.939 181 148.82 184.251C150.701 187.501 154.863 188.612 158.113 186.731C181.464 173.219 197.2 147.949 197.2 119C197.199 115.246 194.154 112.201 190.4 112.2ZM119 68C90.8335 68 68 90.8335 68 119C68 147.167 90.8335 170 119 170C147.166 170 170 147.166 170 119C170 90.8335 147.166 68.0001 119 68ZM75.5803 30.1916C73.6994 26.9413 69.5372 25.8306 66.2867 27.7113C34.806 45.9262 13.6004 79.9825 13.6 119C13.6006 122.755 16.6449 125.8 20.4 125.8C24.1551 125.8 27.1993 122.755 27.2 119C27.2003 85.0335 45.6475 55.3692 73.1 39.4852C76.3501 37.6044 77.4603 33.442 75.5803 30.1916ZM89.1803 53.7492C87.2994 50.4989 83.1372 49.3882 79.8867 51.2689C56.5349 64.7809 40.8004 90.0502 40.8 119C40.8006 122.755 43.8449 125.8 47.6 125.8C51.3551 125.8 54.3993 122.755 54.4 119C54.4003 95.1003 67.3771 74.2234 86.7 63.0428C89.9501 61.162 91.0603 56.9996 89.1803 53.7492Z" fill="#081624"/>
</svg>
