<svg width="133" height="40" viewBox="0 0 133 40" fill="none" xmlns="http://www.w3.org/2000/svg">
<path d="M108.341 14.5556H122.306V18.0553H108.344C108.352 20.7598 108.393 22.6579 108.59 24.1272C108.816 25.8138 109.182 26.3425 109.477 26.6386C109.772 26.9346 110.3 27.6898 111.982 27.9166C113.777 28.1584 116.211 28.1666 119.978 28.1666C121.131 28.1666 122.159 28.1645 123.082 28.1565V31.6571C122.127 31.6653 121.095 31.6666 119.978 31.6666C112.664 31.6666 109.007 31.6665 106.734 29.3886C104.462 27.1105 104.462 23.4439 104.462 16.1109V8.33325H108.341V14.5556Z" fill="#F7F9FB"/>
<path d="M119.978 12.2222H117.651V8.33325H119.978V12.2222Z" fill="#F7F9FB"/>
<path d="M123.082 12.2222H120.754V8.33325H123.082V12.2222Z" fill="#F7F9FB"/>
<path d="M97.6996 12.2222C97.6996 13.0623 97.6992 13.8374 97.6963 14.5556H101.579V18.0553H97.6324C97.5486 19.9659 97.3604 21.3404 96.9378 22.551C95.5732 26.4607 92.5067 29.5345 88.6068 30.9026C87.0245 31.4576 85.1617 31.6085 82.1828 31.65V28.1464C85.0281 28.1044 86.3054 27.9789 87.3255 27.621C90.1112 26.6438 92.3013 24.0592 93.2761 21.2665C93.5394 20.5122 93.6761 19.6175 93.7469 18.0553H82.1828V14.5556H93.8151C93.8188 13.8567 93.8203 13.0827 93.8203 12.2222V8.33325H97.6996V12.2222Z" fill="#F7F9FB"/>
<path d="M67.83 17.8938C68.4512 17.8472 69.0843 17.8493 69.725 17.9055L79.4675 18.7597V22.2747L69.387 21.3909C68.8584 21.3445 68.3376 21.359 67.83 21.427V31.6666H63.9507V8.33325H67.83V17.8938Z" fill="#F7F9FB"/>
<path d="M55.4168 12.2222H59.2957V15.7222H55.4168V31.6666H51.5375V20.0566C49.0135 24.8115 44.8966 28.5871 39.9 30.6679V26.6848C44.2144 24.3607 47.5808 20.4232 49.2399 15.7222H40.6757V12.2222H51.5375V8.33325H55.4168V12.2222Z" fill="#F7F9FB"/>
<path fill-rule="evenodd" clip-rule="evenodd" d="M19.95 6.33325C26.3772 6.33325 31.5875 11.5566 31.5875 17.9999C31.5875 22.6666 29.0605 25.6666 27.5975 27.3333C26.1345 28.9999 22.9425 32.1666 21.945 32.9999C20.9475 33.8333 20.5485 33.9999 19.95 33.9999C19.3515 33.9999 18.9525 33.8333 17.955 32.9999C16.9575 32.1666 13.7655 28.9999 12.3025 27.3333C10.8395 25.6666 8.3125 22.6666 8.3125 17.9999C8.3125 11.5566 13.5228 6.33325 19.95 6.33325ZM29.5925 17.3333C29.2253 17.3333 28.9276 17.6318 28.9275 17.9999C28.9275 21.3299 27.1234 24.2382 24.4388 25.7955C24.1209 25.9799 24.0123 26.3879 24.1962 26.7066C24.3801 27.0253 24.7872 27.1342 25.105 26.9498C28.1836 25.164 30.2575 21.8251 30.2575 17.9999C30.2574 17.6318 29.9597 17.3333 29.5925 17.3333ZM26.9325 17.3333C26.5653 17.3333 26.2676 17.6318 26.2675 17.9999C26.2675 20.343 24.9984 22.3898 23.1088 23.4859C22.7909 23.6703 22.6823 24.0784 22.8662 24.3971C23.0501 24.7157 23.4572 24.8246 23.775 24.6402C26.0587 23.3155 27.5975 20.8381 27.5975 17.9999C27.5974 17.6318 27.2997 17.3333 26.9325 17.3333ZM19.95 12.9999C17.1955 12.9999 14.9625 15.2385 14.9625 17.9999C14.9625 20.7613 17.1955 22.9999 19.95 22.9999C22.7045 22.9999 24.9375 20.7613 24.9375 17.9999C24.9375 15.2385 22.7045 12.9999 19.95 12.9999ZM15.7038 9.29321C15.5199 8.97455 15.1128 8.86566 14.795 9.05005C11.7163 10.8358 9.64254 14.1747 9.6425 17.9999C9.64256 18.3681 9.94027 18.6666 10.3075 18.6666C10.6747 18.6666 10.9724 18.3681 10.9725 17.9999C10.9725 14.6699 12.7766 11.7616 15.4613 10.2043C15.7791 10.02 15.8877 9.61188 15.7038 9.29321ZM17.0338 11.6028C16.8499 11.2841 16.4428 11.1752 16.125 11.3596C13.8413 12.6843 12.3025 15.1617 12.3025 17.9999C12.3026 18.3681 12.6003 18.6666 12.9675 18.6666C13.3347 18.6666 13.6324 18.3681 13.6325 17.9999C13.6325 15.6568 14.9016 13.6101 16.7913 12.5139C17.1091 12.3295 17.2177 11.9214 17.0338 11.6028Z" fill="#F7F9FB"/>
</svg>
