<svg width="120" height="120" viewBox="0 0 120 120" fill="none" xmlns="http://www.w3.org/2000/svg">
<path fill-rule="evenodd" clip-rule="evenodd" d="M60 25C79.33 25 95 40.67 95 60C95 74 87.4 83 83 88C78.6 93 69 102.5 66 105C63 107.5 61.8 108 60 108C58.2 108 57 107.5 54 105C51 102.5 41.4 93 37 88C32.6 83 25 74 25 60C25 40.67 40.67 25 60 25ZM89 58C87.8955 58 87.0002 58.8956 87 60C86.9999 69.99 81.5741 78.7149 73.5 83.3867C72.544 83.9399 72.2174 85.1641 72.7705 86.1201C73.3237 87.0761 74.5479 87.4028 75.5039 86.8496C84.7628 81.4922 90.9999 71.4756 91 60C90.9998 58.8957 90.1042 58.0003 89 58ZM81 58C79.8955 58 79.0002 58.8956 79 60C78.9999 67.0292 75.183 73.1696 69.5 76.458C68.544 77.0112 68.2174 78.2354 68.7705 79.1914C69.3237 80.1474 70.5479 80.4741 71.5039 79.9209C78.3719 75.9468 82.9999 68.5145 83 60C82.9998 58.8957 82.1042 58.0003 81 58ZM60 45C51.7157 45 45 51.7157 45 60C45 68.2843 51.7157 75 60 75C68.2843 75 75 68.2843 75 60C75 51.7157 68.2843 45 60 45ZM47.2295 33.8799C46.6763 32.9239 45.4521 32.5972 44.4961 33.1504C35.2371 38.5077 29.0001 48.5243 29 60C29.0002 61.1044 29.8956 62 31 62C32.1044 62 32.9998 61.1044 33 60C33.0001 50.0099 38.4257 41.2851 46.5 36.6133C47.4559 36.0601 47.7824 34.8359 47.2295 33.8799ZM51.2295 40.8086C50.6763 39.8526 49.4521 39.5259 48.4961 40.0791C41.6279 44.0532 37.0001 51.4853 37 60C37.0002 61.1044 37.8956 62 39 62C40.1044 62 40.9998 61.1044 41 60C41.0001 52.9707 44.8168 46.8304 50.5 43.542C51.4559 42.9888 51.7825 41.7646 51.2295 40.8086Z" fill="#081624"/>
</svg>
