<svg width="340" height="340" viewBox="0 0 340 340" fill="none" xmlns="http://www.w3.org/2000/svg">
<path fill-rule="evenodd" clip-rule="evenodd" d="M170 37.4C235.722 37.4 289 90.6781 289 156.4C289 204 263.16 234.6 248.2 251.6C233.24 268.6 200.6 300.9 190.4 309.4C180.2 317.9 176.12 319.6 170 319.6C163.88 319.6 159.8 317.9 149.6 309.4C139.4 300.9 106.76 268.6 91.8 251.6C76.84 234.6 51 204 51 156.4C51 90.6781 104.278 37.4 170 37.4ZM268.6 149.6C264.845 149.6 261.801 152.645 261.8 156.4C261.8 190.366 243.352 220.031 215.9 235.915C212.65 237.796 211.539 241.958 213.42 245.208C215.301 248.459 219.463 249.569 222.713 247.689C254.193 229.474 275.4 195.417 275.4 156.4C275.399 152.646 272.354 149.601 268.6 149.6ZM241.4 149.6C237.645 149.6 234.601 152.645 234.6 156.4C234.6 180.299 221.622 201.176 202.3 212.357C199.05 214.238 197.939 218.4 199.82 221.651C201.701 224.901 205.863 226.012 209.113 224.131C232.464 210.619 248.2 185.349 248.2 156.4C248.199 152.646 245.154 149.601 241.4 149.6ZM170 105.4C141.833 105.4 119 128.234 119 156.4C119 184.567 141.833 207.4 170 207.4C198.166 207.4 221 184.567 221 156.4C221 128.234 198.166 105.4 170 105.4ZM126.58 67.5916C124.699 64.3413 120.537 63.2306 117.287 65.1114C85.806 83.3263 64.6004 117.383 64.6 156.4C64.6006 160.155 67.6449 163.2 71.4 163.2C75.1551 163.2 78.1993 160.155 78.2 156.4C78.2003 122.434 96.6475 92.7692 124.1 76.8852C127.35 75.0045 128.46 70.842 126.58 67.5916ZM140.18 91.1492C138.299 87.8989 134.137 86.7882 130.887 88.669C107.535 102.181 91.8004 127.45 91.8 156.4C91.8006 160.155 94.8449 163.2 98.6 163.2C102.355 163.2 105.399 160.155 105.4 156.4C105.4 132.5 118.377 111.623 137.7 100.443C140.95 98.562 142.06 94.3996 140.18 91.1492Z" fill="#081624"/>
</svg>
