<svg width="100" height="100" viewBox="0 0 100 100" fill="none" xmlns="http://www.w3.org/2000/svg">
<path fill-rule="evenodd" clip-rule="evenodd" d="M50 11C69.33 11 85 26.67 85 46C85 60 77.4 69 73 74C68.6 79 59 88.5 56 91C53 93.5 51.8 94 50 94C48.2 94 47 93.5 44 91C41 88.5 31.4 79 27 74C22.6 69 15 60 15 46C15 26.67 30.67 11 50 11ZM79 44C77.8955 44 77.0002 44.8956 77 46C76.9999 55.99 71.5741 64.7149 63.5 69.3867C62.544 69.9399 62.2174 71.1641 62.7705 72.1201C63.3237 73.0761 64.5479 73.4028 65.5039 72.8496C74.7628 67.4922 80.9999 57.4756 81 46C80.9998 44.8957 80.1042 44.0003 79 44ZM71 44C69.8955 44 69.0002 44.8956 69 46C68.9999 53.0292 65.183 59.1696 59.5 62.458C58.544 63.0112 58.2174 64.2354 58.7705 65.1914C59.3237 66.1474 60.5479 66.4741 61.5039 65.9209C68.3719 61.9468 72.9999 54.5145 73 46C72.9998 44.8957 72.1042 44.0003 71 44ZM50 31C41.7157 31 35 37.7157 35 46C35 54.2843 41.7157 61 50 61C58.2843 61 65 54.2843 65 46C65 37.7157 58.2843 31 50 31ZM37.2295 19.8799C36.6763 18.9239 35.4521 18.5972 34.4961 19.1504C25.2371 24.5077 19.0001 34.5243 19 46C19.0002 47.1044 19.8956 48 21 48C22.1044 48 22.9998 47.1044 23 46C23.0001 36.0099 28.4257 27.2851 36.5 22.6133C37.4559 22.0601 37.7824 20.8359 37.2295 19.8799ZM41.2295 26.8086C40.6763 25.8526 39.4521 25.5259 38.4961 26.0791C31.6279 30.0532 27.0001 37.4853 27 46C27.0002 47.1044 27.8956 48 29 48C30.1044 48 30.9998 47.1044 31 46C31.0001 38.9707 34.8168 32.8304 40.5 29.542C41.4559 28.9888 41.7825 27.7646 41.2295 26.8086Z" fill="white"/>
</svg>
