<svg width="80" height="56" viewBox="0 0 80 56" fill="none" xmlns="http://www.w3.org/2000/svg">
<g clip-path="url(#clip0_2846_31214)">
<path d="M29.4814 38.5182C27.0895 36.1263 27.0895 32.2481 29.4814 29.8562L34.4312 24.9064L35.6686 26.1439L30.7189 31.0936C29.0103 32.8021 29.0103 35.5722 30.7189 37.2808C32.4274 38.9893 35.1975 38.9893 36.906 37.2808L41.8558 32.331L43.0932 33.5685L38.1435 38.5182C35.7515 40.9102 31.8734 40.9102 29.4814 38.5182Z" fill="#081624"/>
<path d="M50.5186 17.4818C52.9105 19.8737 52.9105 23.7519 50.5186 26.1438L45.5688 31.0936L44.3314 29.8561L49.2811 24.9064C50.9897 23.1979 50.9897 20.4278 49.2811 18.7192C47.5726 17.0107 44.8025 17.0107 43.094 18.7192L38.1442 23.669L36.9068 22.4315L41.8565 17.4818C44.2485 15.0898 48.1266 15.0898 50.5186 17.4818Z" fill="#081624"/>
<path d="M44.3311 22.4316L45.5686 23.669L35.6691 33.5685L34.4316 32.3311L44.3311 22.4316Z" fill="#081624"/>
</g>
<defs>
<clipPath id="clip0_2846_31214">
<rect width="28" height="28" fill="white" transform="translate(26 14)"/>
</clipPath>
</defs>
</svg>
