<svg width="80" height="56" viewBox="0 0 80 56" fill="none" xmlns="http://www.w3.org/2000/svg">
<g opacity="0.7">
<g clip-path="url(#clip0_3261_32199)">
<path d="M28.4301 39.57C25.799 36.9389 25.799 32.6729 28.4301 30.0418L33.8749 24.5971L35.236 25.9582L29.7913 31.403C27.9119 33.2824 27.9119 36.3295 29.7913 38.2089C31.6707 40.0883 34.7178 40.0883 36.5972 38.2089L42.042 32.7641L43.4031 34.1253L37.9584 39.57C35.3273 42.2012 31.0613 42.2012 28.4301 39.57Z" fill="#081624"/>
<path d="M51.5699 16.43C54.201 19.0611 54.201 23.3271 51.5699 25.9582L46.1251 31.4029L44.7639 30.0418L50.2087 24.597C52.0881 22.7176 52.0881 19.6705 50.2087 17.7911C48.3293 15.9117 45.2822 15.9117 43.4028 17.7911L37.958 23.2359L36.5969 21.8747L42.0416 16.43C44.6727 13.7988 48.9387 13.7988 51.5699 16.43Z" fill="#081624"/>
<path d="M44.7644 21.8747L46.1256 23.2358L35.2362 34.1253L33.875 32.7641L44.7644 21.8747Z" fill="#081624"/>
</g>
</g>
<defs>
<clipPath id="clip0_3261_32199">
<rect width="30.8" height="30.8" fill="white" transform="translate(24.5996 12.6)"/>
</clipPath>
</defs>
</svg>
